# xmcd
# 
# Track frame offsets:
#     150
#     16336
#     31283
#     46775
#     60698
#     77855
#     91509
#     118009
#     133091
#     146289
#     166433
#     180610
#     196512
#     213035
#     228501
#     254469
#     268843
#     286356
# 
# Disc length: 4018
# 
# Revision: 0
# Processed by: cddbd v1.5.2PL0 Copyright (c) Steve Scherf et al.
# Submitted via: BonkEnc v1.0
# 
DISCID=f10fb012
DTITLE=Compilation Disk - Summer of Love Set 1 - CD 2
DYEAR=0
DGENRE=Blues
TTITLE0=21
TTITLE1=22
TTITLE2=23
TTITLE3=24
TTITLE4=25
TTITLE5=26
TTITLE6=27
TTITLE7=28
TTITLE8=29
TTITLE9=210
TTITLE10=211
TTITLE11=212
TTITLE12=213
TTITLE13=214
TTITLE14=215
TTITLE15=216
TTITLE16=217
TTITLE17=218
EXTD=ID3G: 0
EXTT0=The Flowerpot Men\n
EXTT1=Santana\n
EXTT2=The Mamas and The Papas\n
EXTT3=Simon and Garfunkel\n
EXTT4=Leonard Cohen\n
EXTT5=The Cowsills\n
EXTT6=John Miles\n
EXTT7=Eric Burdon and The Animals\n
EXTT8=Donovan\n
EXTT9=Matthews Southern Comfort\n
EXTT10=Merrilee Rush\n
EXTT11=Roy Buchanan\n
EXTT12=Elkie Brooks\n
EXTT13=Leonard Cohen\n
EXTT14=The Moody Blues\n
EXTT15=Jim Croce\n
EXTT16=Procol Harum\n
EXTT17=Canned Heat\n
PLAYORDER=
